<svg width="19" height="19" viewBox="0 0 19 19" fill="none" xmlns="http://www.w3.org/2000/svg">
<path d="M10 8.49961V2.49961H12V5.09961L17 0.0996094L18.4 1.49961L13.4 6.49961H16V8.49961H10ZM16.95 18.4996C14.8667 18.4996 12.8083 18.0456 10.775 17.1376C8.74167 16.2296 6.89167 14.9419 5.225 13.2746C3.55833 11.6079 2.271 9.75794 1.363 7.72461C0.455 5.69128 0.000666667 3.63294 0 1.54961C0 1.24961 0.0999999 0.999609 0.3 0.799609C0.5 0.599609 0.75 0.499609 1.05 0.499609H5.1C5.33333 0.499609 5.54167 0.578943 5.725 0.737609C5.90833 0.896276 6.01667 1.08361 6.05 1.29961L6.7 4.79961C6.73333 5.06628 6.725 5.29128 6.675 5.47461C6.625 5.65794 6.53333 5.81628 6.4 5.94961L3.975 8.39961C4.30833 9.01628 4.704 9.61194 5.162 10.1866C5.62 10.7613 6.12433 11.3156 6.675 11.8496C7.19167 12.3663 7.73333 12.8456 8.3 13.2876C8.86667 13.7296 9.46667 14.1336 10.1 14.4996L12.45 12.1496C12.6 11.9996 12.796 11.8873 13.038 11.8126C13.28 11.7379 13.5173 11.7169 13.75 11.7496L17.2 12.4496C17.4333 12.5163 17.625 12.6373 17.775 12.8126C17.925 12.9879 18 13.1836 18 13.3996V17.4496C18 17.7496 17.9 17.9996 17.7 18.1996C17.5 18.3996 17.25 18.4996 16.95 18.4996ZM3.025 6.49961L4.675 4.84961L4.25 2.49961H2.025C2.10833 3.18294 2.225 3.85794 2.375 4.52461C2.525 5.19128 2.74167 5.84961 3.025 6.49961ZM11.975 15.4496C12.625 15.7329 13.2877 15.9579 13.963 16.1246C14.6383 16.2913 15.3173 16.3996 16 16.4496V14.2496L13.65 13.7746L11.975 15.4496Z" fill="white"/>
</svg>
