<svg width="48" height="48" viewBox="0 0 48 48" fill="none" xmlns="http://www.w3.org/2000/svg">
<path d="M7.032 40.968C4.73975 38.7541 2.91138 36.1058 1.65356 33.1777C0.395745 30.2496 -0.266324 27.1003 -0.294016 23.9136C-0.321707 20.7269 0.285533 17.5666 1.49227 14.6171C2.69902 11.6676 4.48109 8.98794 6.73452 6.73452C8.98794 4.48109 11.6676 2.69902 14.6171 1.49227C17.5666 0.285533 20.7269 -0.321707 23.9136 -0.294016C27.1003 -0.266324 30.2496 0.395745 33.1777 1.65356C36.1058 2.91138 38.7541 4.73975 40.968 7.032C45.3398 11.5584 47.7589 17.6209 47.7042 23.9136C47.6495 30.2063 45.1254 36.2258 40.6756 40.6756C36.2258 45.1254 30.2063 47.6495 23.9136 47.7042C17.6209 47.7589 11.5584 45.3398 7.032 40.968ZM10.416 37.584C14.0187 41.1867 18.905 43.2107 24 43.2107C29.095 43.2107 33.9813 41.1867 37.584 37.584C41.1867 33.9813 43.2107 29.095 43.2107 24C43.2107 18.905 41.1867 14.0187 37.584 10.416C33.9813 6.81329 29.095 4.78932 24 4.78932C18.905 4.78932 14.0187 6.81329 10.416 10.416C6.81329 14.0187 4.78932 18.905 4.78932 24C4.78932 29.095 6.81329 33.9813 10.416 37.584ZM34.176 17.208L27.384 24L34.176 30.792L30.792 34.176L24 27.384L17.208 34.176L13.824 30.792L20.616 24L13.824 17.208L17.208 13.824L24 20.616L30.792 13.824L34.176 17.208Z" fill="#BA0000"/>
</svg>
