<svg width="16" height="16" viewBox="0 0 16 16" fill="none" xmlns="http://www.w3.org/2000/svg">
<path d="M1 14.999H2.098L12.796 4.301L11.698 3.203L1 13.901V14.999ZM0 15.999V13.479L13.18 0.287C13.2827 0.195667 13.396 0.125 13.52 0.0750003C13.644 0.0250003 13.773 0 13.907 0C14.0417 0 14.1717 0.0210002 14.297 0.0630002C14.4237 0.105667 14.5403 0.182334 14.647 0.293L15.713 1.365C15.8237 1.47167 15.899 1.58833 15.939 1.715C15.9797 1.84233 16 1.96967 16 2.097C16 2.23233 15.977 2.362 15.931 2.486C15.8857 2.60933 15.813 2.72233 15.713 2.825L2.52 15.999H0ZM12.237 3.761L11.698 3.203L12.796 4.301L12.237 3.761Z" fill="#BA0000"/>
</svg>
