<svg width="53" height="54" viewBox="0 0 53 54" fill="none" xmlns="http://www.w3.org/2000/svg">
<path d="M18.2879 2.47698C13.0424 4.29671 8.51862 7.75063 5.38111 12.3314C2.24361 16.9122 0.657757 22.3783 0.856481 27.927C1.05521 33.4757 3.02804 38.8144 6.4852 43.159C9.94236 47.5036 14.7016 50.6251 20.0639 52.0649C24.4113 53.1866 28.966 53.2359 33.3366 52.2084C37.2959 51.3191 40.9564 49.4168 43.9596 46.6877C47.0854 43.7606 49.3542 40.0369 50.5221 35.917C51.7912 31.4367 52.0171 26.7252 51.1825 22.144H26.77V32.2707H40.9081C40.6255 33.8859 40.02 35.4274 39.1278 36.8031C38.2356 38.1788 37.075 39.3603 35.7155 40.277C33.9893 41.4194 32.0431 42.1878 30.002 42.5328C27.9551 42.9135 25.8556 42.9135 23.8087 42.5328C21.7339 42.1044 19.7712 41.2481 18.046 40.0186C15.2739 38.0563 13.1925 35.2687 12.0987 32.0533C10.9867 28.7778 10.9867 25.2268 12.0987 21.9512C12.8773 19.6552 14.1644 17.5647 15.8639 15.8358C17.8088 13.8209 20.2712 12.3806 22.9808 11.673C25.6904 10.9654 28.5425 11.0178 31.2243 11.8244C33.3194 12.4672 35.2352 13.5909 36.8188 15.1057C38.4129 13.5197 40.0044 11.9297 41.593 10.3356C42.4133 9.47834 43.3075 8.66213 44.1155 7.7844C41.6977 5.53476 38.86 3.78416 35.7647 2.63283C30.1279 0.586113 23.9603 0.531109 18.2879 2.47698Z" fill="white"/>
<path d="M18.2896 2.47653C23.9615 0.529339 30.1292 0.582895 35.7664 2.62828C38.8622 3.78743 41.6987 5.54646 44.1131 7.80446C43.2928 8.68219 42.4273 9.5025 41.5906 10.3556C39.9992 11.9443 38.4092 13.5275 36.8205 15.1052C35.2369 13.5904 33.321 12.4668 31.226 11.824C28.5451 11.0145 25.693 10.9591 22.9827 11.6638C20.2724 12.3685 17.8086 13.8061 15.8615 15.8189C14.162 17.5479 12.8749 19.6384 12.0963 21.9343L3.59375 15.3513C6.63714 9.31613 11.9066 4.69967 18.2896 2.47653Z" fill="#E33629"/>
<path d="M1.33671 21.873C1.79337 19.608 2.55211 17.4146 3.59257 15.3516L12.0951 21.951C10.9831 25.2266 10.9831 28.7775 12.0951 32.0531C9.26229 34.2406 6.42811 36.4391 3.59257 38.6484C0.988692 33.4654 0.194556 27.5599 1.33671 21.873Z" fill="#F8BD00"/>
<path d="M26.7714 22.1396H51.1839C52.0185 26.7208 51.7926 31.4324 50.5235 35.9127C49.3555 40.0326 47.0867 43.7563 43.961 46.6834C41.2171 44.5424 38.4608 42.4178 35.7169 40.2768C37.0773 39.3592 38.2384 38.1763 39.1306 36.7992C40.0229 35.422 40.6279 33.8789 40.9094 32.2623H26.7714C26.7673 28.8908 26.7714 25.5152 26.7714 22.1396Z" fill="#587DBD"/>
<path d="M3.58984 38.6485C6.42539 36.461 9.25957 34.2626 12.0924 32.0532C13.1884 35.2697 15.2728 38.0575 18.0479 40.0185C19.7785 41.2422 21.7454 42.0916 23.8229 42.5122C25.8698 42.8929 27.9693 42.8929 30.0162 42.5122C32.0573 42.1672 34.0035 41.3988 35.7297 40.2563C38.4736 42.3974 41.2299 44.522 43.9738 46.663C40.971 49.3935 37.3105 51.2973 33.3508 52.1878C28.9802 53.2153 24.4255 53.166 20.0781 52.0442C16.6398 51.1262 13.4282 49.5078 10.6445 47.2905C7.69849 44.9511 5.29213 42.0033 3.58984 38.6485Z" fill="#319F43"/>
</svg>
