<svg width="50" height="50" viewBox="0 0 50 50" fill="none" xmlns="http://www.w3.org/2000/svg">
<path d="M4.25381 7.99628C4.25144 7.18846 4.50973 6.40143 4.9903 5.75211C5.47088 5.10279 6.14811 4.62583 6.92137 4.39208C7.69464 4.15833 8.52267 4.18027 9.28247 4.45464C10.0423 4.72901 10.6933 5.24117 11.1388 5.91503C11.2755 6.11989 11.4511 6.29583 11.6558 6.4328C11.8604 6.56977 12.0901 6.66509 12.3316 6.71332C12.573 6.76155 12.8217 6.76174 13.0632 6.71389C13.3048 6.66603 13.5346 6.57106 13.7394 6.4344C13.9443 6.29775 14.1202 6.12208 14.2572 5.91743C14.3942 5.71277 14.4895 5.48315 14.5377 5.24166C14.586 5.00017 14.5861 4.75154 14.5383 4.50998C14.4904 4.26841 14.3955 4.03864 14.2588 3.83378C13.3689 2.48596 12.0677 1.46143 10.5487 0.912579C9.02969 0.363729 7.37411 0.319888 5.8282 0.787578C4.2823 1.25527 2.92867 2.2095 1.96867 3.50833C1.00867 4.80716 0.493593 6.38119 0.50006 7.99628C0.499312 9.00646 0.702542 10.0064 1.09757 10.9361C1.49259 11.8659 2.07128 12.7063 2.79894 13.407C3.52661 14.1077 4.38826 14.6542 5.33225 15.0139C6.27624 15.3736 7.28313 15.5389 8.29256 15.5H20.5138C23.9721 13.0623 28.099 11.7526 32.3301 11.75H8.29256L8.15006 11.7538C7.64431 11.7735 7.1398 11.6907 6.66685 11.5105C6.19391 11.3302 5.7623 11.0562 5.39799 10.7048C5.03368 10.3535 4.74418 9.93206 4.54691 9.46595C4.34964 8.99985 4.24866 8.49866 4.25006 7.99253M6.10631 19.2538H16.4563C15.5013 20.4106 14.6752 21.668 13.9926 23.0038H6.11006C5.61278 23.0038 5.13587 22.8062 4.78424 22.4546C4.4326 22.103 4.23506 21.6261 4.23506 21.1288C4.23506 20.6315 4.4326 20.1546 4.78424 19.803C5.13587 19.4513 5.61278 19.2538 6.11006 19.2538M2.37881 26.75H12.5263C12.1793 27.9758 11.9471 29.2312 11.8326 30.5H2.38256C1.88528 30.5 1.40837 30.3025 1.05673 29.9509C0.705104 29.5992 0.507561 29.1223 0.507561 28.625C0.507561 28.1277 0.705104 27.6508 1.05673 27.2992C1.40837 26.9476 1.88528 26.75 2.38256 26.75M6.11381 34.25H11.8363C11.9513 35.5188 12.1835 36.7741 12.5301 38H6.11006C5.61278 38 5.13587 37.8025 4.78424 37.4509C4.4326 37.0992 4.23506 36.6223 4.23506 36.125C4.23506 35.6277 4.4326 35.1508 4.78424 34.7992C5.13587 34.4476 5.61653 34.25 6.11381 34.25ZM21.1251 4.25003C20.6278 4.25003 20.1509 4.44757 19.7992 4.7992C19.4476 5.15084 19.2501 5.62775 19.2501 6.12503C19.2501 6.62231 19.4476 7.09922 19.7992 7.45085C20.1509 7.80248 20.6278 8.00003 21.1251 8.00003H43.6251C44.1223 8.00003 44.5993 7.80248 44.9509 7.45085C45.3025 7.09922 45.5001 6.62231 45.5001 6.12503C45.5001 5.62775 45.3025 5.15084 44.9509 4.7992C44.5993 4.44757 44.1223 4.25003 43.6251 4.25003H21.1251ZM49.2501 32.375C49.2501 34.5911 48.8136 36.7854 47.9655 38.8328C47.1175 40.8802 45.8745 42.7405 44.3075 44.3075C42.7405 45.8744 40.8802 47.1174 38.8328 47.9655C36.7855 48.8135 34.5911 49.25 32.3751 49.25C30.159 49.25 27.9646 48.8135 25.9173 47.9655C23.8699 47.1174 22.0096 45.8744 20.4426 44.3075C18.8756 42.7405 17.6326 40.8802 16.7846 38.8328C15.9365 36.7854 15.5001 34.5911 15.5001 32.375C15.5001 27.8995 17.278 23.6073 20.4426 20.4426C23.6073 17.2779 27.8995 15.5 32.3751 15.5C36.8506 15.5 41.1428 17.2779 44.3075 20.4426C47.4722 23.6073 49.2501 27.8995 49.2501 32.375ZM34.2501 24.875C34.2501 24.3777 34.0525 23.9008 33.7009 23.5492C33.3493 23.1976 32.8723 23 32.3751 23C31.8778 23 31.4009 23.1976 31.0492 23.5492C30.6976 23.9008 30.5001 24.3777 30.5001 24.875V30.5H24.8751C24.3778 30.5 23.9009 30.6976 23.5492 31.0492C23.1976 31.4008 23.0001 31.8777 23.0001 32.375C23.0001 32.8723 23.1976 33.3492 23.5492 33.7009C23.9009 34.0525 24.3778 34.25 24.8751 34.25H30.5001V39.875C30.5001 40.3723 30.6976 40.8492 31.0492 41.2009C31.4009 41.5525 31.8778 41.75 32.3751 41.75C32.8723 41.75 33.3493 41.5525 33.7009 41.2009C34.0525 40.8492 34.2501 40.3723 34.2501 39.875V34.25H39.8751C40.3723 34.25 40.8493 34.0525 41.2009 33.7009C41.5525 33.3492 41.7501 32.8723 41.7501 32.375C41.7501 31.8777 41.5525 31.4008 41.2009 31.0492C40.8493 30.6976 40.3723 30.5 39.8751 30.5H34.2501V24.875Z" fill="#BA0000"/>
</svg>
