<svg width="53" height="46" viewBox="0 0 53 46" fill="none" xmlns="http://www.w3.org/2000/svg">
<path d="M30.5 0.5C24.5326 0.5 18.8097 2.87053 14.5901 7.0901C10.3705 11.3097 8 17.0326 8 23H0.5L10.225 32.725L10.4 33.075L20.5 23H13C13 13.325 20.825 5.5 30.5 5.5C40.175 5.5 48 13.325 48 23C48 32.675 40.175 40.5 30.5 40.5C25.675 40.5 21.3 38.525 18.15 35.35L14.6 38.9C16.6835 40.995 19.1612 42.6569 21.8902 43.7896C24.6191 44.9224 27.5453 45.5037 30.5 45.5C36.4674 45.5 42.1903 43.1295 46.4099 38.9099C50.6295 34.6903 53 28.9674 53 23C53 17.0326 50.6295 11.3097 46.4099 7.0901C42.1903 2.87053 36.4674 0.5 30.5 0.5ZM28 13V25.5L38.625 31.8L40.55 28.575L31.75 23.35V13H28Z" fill="#BA0000"/>
</svg>
