<svg width="40" height="50" viewBox="0 0 40 50" fill="none" xmlns="http://www.w3.org/2000/svg">
<path d="M17.5 37.5H22.5V22.5H17.5V37.5ZM20 17.5C20.7083 17.5 21.3025 17.26 21.7825 16.78C22.2625 16.3 22.5017 15.7067 22.5 15C22.5 14.2917 22.26 13.6983 21.78 13.22C21.3 12.7417 20.7067 12.5017 20 12.5C19.2917 12.5 18.6983 12.74 18.22 13.22C17.7417 13.7 17.5017 14.2933 17.5 15C17.5 15.7083 17.74 16.3025 18.22 16.7825C18.7 17.2625 19.2933 17.5017 20 17.5ZM20 50C14.2083 48.5417 9.42667 45.2183 5.655 40.03C1.88333 34.8417 -0.00166556 29.0817 1.10424e-06 22.75V7.5L20 0L40 7.5V22.75C40 29.0833 38.115 34.8442 34.345 40.0325C30.575 45.2208 25.7933 48.5433 20 50ZM20 44.75C24.3333 43.375 27.9167 40.625 30.75 36.5C33.5833 32.375 35 27.7917 35 22.75V10.9375L20 5.3125L5 10.9375V22.75C5 27.7917 6.41667 32.375 9.25 36.5C12.0833 40.625 15.6667 43.375 20 44.75Z" fill="#BA0000"/>
</svg>
