<svg width="20" height="20" viewBox="0 0 20 20" fill="none" xmlns="http://www.w3.org/2000/svg">
<path d="M2.22172 17.7777C2.68559 18.2423 3.23669 18.6106 3.84334 18.8615C4.44999 19.1123 5.10023 19.2409 5.75672 19.2397C6.41335 19.2409 7.06374 19.1123 7.67054 18.8614C8.27735 18.6105 8.82863 18.2422 9.29272 17.7777L12.1207 14.9487L10.7067 13.5347L7.87872 16.3637C7.31519 16.9247 6.55239 17.2397 5.75722 17.2397C4.96205 17.2397 4.19925 16.9247 3.63572 16.3637C3.07422 15.8004 2.75892 15.0375 2.75892 14.2422C2.75892 13.4469 3.07422 12.684 3.63572 12.1207L6.46472 9.29272L5.05072 7.87872L2.22172 10.7067C1.28552 11.6452 0.759766 12.9166 0.759766 14.2422C0.759766 15.5678 1.28552 16.8393 2.22172 17.7777ZM17.7777 9.29272C18.7134 8.354 19.2388 7.08264 19.2388 5.75722C19.2388 4.4318 18.7134 3.16043 17.7777 2.22172C16.8393 1.28552 15.5678 0.759766 14.2422 0.759766C12.9166 0.759766 11.6452 1.28552 10.7067 2.22172L7.87872 5.05072L9.29272 6.46472L12.1207 3.63572C12.6842 3.07471 13.447 2.75975 14.2422 2.75975C15.0374 2.75975 15.8002 3.07471 16.3637 3.63572C16.9252 4.19899 17.2405 4.96189 17.2405 5.75722C17.2405 6.55255 16.9252 7.31545 16.3637 7.87872L13.5347 10.7067L14.9487 12.1207L17.7777 9.29272ZM6.46371 14.9498L5.04871 13.5358L13.5357 5.0498L14.9497 6.4648L6.46371 14.9498Z" fill="#BA0000"/>
<path d="M2.22172 17.7777C2.68559 18.2423 3.23669 18.6106 3.84334 18.8615C4.44999 19.1123 5.10023 19.2409 5.75672 19.2397C6.41335 19.2409 7.06374 19.1123 7.67054 18.8614C8.27735 18.6105 8.82863 18.2422 9.29272 17.7777L12.1207 14.9487L10.7067 13.5347L7.87872 16.3637C7.31519 16.9247 6.55239 17.2397 5.75722 17.2397C4.96205 17.2397 4.19925 16.9247 3.63572 16.3637C3.07422 15.8004 2.75892 15.0375 2.75892 14.2422C2.75892 13.4469 3.07422 12.684 3.63572 12.1207L6.46472 9.29272L5.05072 7.87872L2.22172 10.7067C1.28552 11.6452 0.759766 12.9166 0.759766 14.2422C0.759766 15.5678 1.28552 16.8393 2.22172 17.7777ZM17.7777 9.29272C18.7134 8.354 19.2388 7.08264 19.2388 5.75722C19.2388 4.4318 18.7134 3.16043 17.7777 2.22172C16.8393 1.28552 15.5678 0.759766 14.2422 0.759766C12.9166 0.759766 11.6452 1.28552 10.7067 2.22172L7.87872 5.05072L9.29272 6.46472L12.1207 3.63572C12.6842 3.07471 13.447 2.75975 14.2422 2.75975C15.0374 2.75975 15.8002 3.07471 16.3637 3.63572C16.9252 4.19899 17.2405 4.96189 17.2405 5.75722C17.2405 6.55255 16.9252 7.31545 16.3637 7.87872L13.5347 10.7067L14.9487 12.1207L17.7777 9.29272ZM6.46371 14.9498L5.04871 13.5358L13.5357 5.0498L14.9497 6.4648L6.46371 14.9498Z" fill="#BA0000"/>
</svg>
