<svg width="53" height="65" viewBox="0 0 53 65" fill="none" xmlns="http://www.w3.org/2000/svg">
<path d="M26.7557 18.585C24.2007 18.585 20.2457 15.68 16.0807 15.785C10.5857 15.855 5.54569 18.97 2.71069 23.905C-2.99431 33.81 1.24069 48.44 6.80569 56.49C9.53569 60.41 12.7557 64.82 17.0257 64.68C21.1207 64.505 22.6607 62.02 27.6307 62.02C32.5657 62.02 33.9657 64.68 38.3057 64.575C42.7157 64.505 45.5157 60.585 48.2107 56.63C51.3257 52.08 52.6207 47.67 52.6907 47.425C52.5857 47.39 44.1157 44.135 44.0107 34.335C43.9407 26.145 50.6957 22.225 51.0107 22.05C47.1607 16.415 41.2457 15.785 39.1807 15.645C33.7907 15.225 29.2757 18.585 26.7557 18.585ZM35.8557 10.325C38.1307 7.595 39.6357 3.78 39.2157 0C35.9607 0.14 32.0407 2.17 29.6957 4.9C27.5957 7.315 25.7757 11.2 26.2657 14.91C29.8707 15.19 33.5807 13.055 35.8557 10.325Z" fill="#111111"/>
</svg>
