<svg width="53" height="54" viewBox="0 0 53 54" fill="none" xmlns="http://www.w3.org/2000/svg">
<g clip-path="url(#clip0_175_1090)">
<path d="M52.5 27C52.5 12.5026 40.7474 0.75 26.25 0.75C11.7526 0.75 0 12.5026 0 27C0 40.102 9.5993 50.9619 22.1484 52.9311V34.5879H15.4834V27H22.1484V21.2168C22.1484 14.6379 26.0675 11.0039 32.0636 11.0039C34.9355 11.0039 37.9395 11.5166 37.9395 11.5166V17.9766H34.6295C31.3685 17.9766 30.3516 20.0001 30.3516 22.0761V27H37.6318L36.468 34.5879H30.3516V52.9311C42.9007 50.9619 52.5 40.1022 52.5 27Z" fill="#1877F2"/>
<path d="M36.468 34.5879L37.6318 27H30.3516V22.0761C30.3516 19.9999 31.3685 17.9766 34.6295 17.9766H37.9395V11.5166C37.9395 11.5166 34.9355 11.0039 32.0633 11.0039C26.0675 11.0039 22.1484 14.6379 22.1484 21.2168V27H15.4834V34.5879H22.1484V52.9311C23.5053 53.1437 24.8766 53.2504 26.25 53.25C27.6234 53.2504 28.9947 53.1438 30.3516 52.9311V34.5879H36.468Z" fill="white"/>
</g>
<defs>
<clipPath id="clip0_175_1090">
<rect width="52.5" height="52.5" fill="white" transform="translate(0 0.75)"/>
</clipPath>
</defs>
</svg>
