<svg width="38" height="58" viewBox="0 0 38 58" fill="none" xmlns="http://www.w3.org/2000/svg">
<path d="M37.75 16.5491C37.75 0.060313 20.9847 0.926563 20.9847 0.926563L21.07 0.93875C20.4127 0.897805 19.7542 0.876545 19.0956 0.875H19.0806C19.0806 0.875 18.1788 0.875938 16.8344 0.9725C15.7713 0.937813 0.25 0.714688 0.25 16.6391C0.25 23.7191 5.65188 32.1819 11.8113 39.5366C7.3225 43.775 3.88656 46.5941 3.88656 46.5941L8.47656 57.0369C8.47656 57.0369 13.2587 53.1153 18.9559 47.3572C24.6925 53.165 29.5234 57.125 29.5234 57.125L34.1153 46.6841C34.1153 46.6841 30.6353 43.8331 26.1006 39.5544C32.2975 32.1744 37.75 23.6647 37.75 16.5491ZM31.8203 13.6737C29.9406 19.5163 24.5228 26.4172 18.9456 32.3881C13.2784 26.3225 7.78094 19.3091 5.98937 13.4206C8.0725 10.8641 13.0188 9.06219 18.805 9.06219C24.7797 9.06219 29.8656 10.9831 31.8203 13.6737Z" fill="#BA0000"/>
</svg>
