<svg width="57" height="60" viewBox="0 0 57 60" fill="none" xmlns="http://www.w3.org/2000/svg">
<path d="M28.125 11.25C30.4492 11.25 32.6367 11.6895 34.6875 12.5684C36.7383 13.4473 38.5254 14.6582 40.0488 16.2012C41.5723 17.7441 42.7734 19.5312 43.6523 21.5625C44.5312 23.5938 44.9805 25.7812 45 28.125C45 29.3555 44.9219 30.5078 44.7656 31.582C44.6094 32.6562 44.3652 33.6816 44.0332 34.6582C43.7012 35.6348 43.2715 36.6016 42.7441 37.5586C42.2168 38.5156 41.5918 39.4922 40.8691 40.4883C40.3027 41.2695 39.8047 41.9727 39.375 42.5977C38.9453 43.2227 38.5938 43.8477 38.3203 44.4727C38.0469 45.0977 37.8418 45.7812 37.7051 46.5234C37.5684 47.2656 37.5 48.1348 37.5 49.1309V54.375C37.5 55.1562 37.3535 55.8887 37.0605 56.5723C36.7676 57.2559 36.3672 57.8516 35.8594 58.3594C35.3516 58.8672 34.7559 59.2676 34.0723 59.5605C33.3887 59.8535 32.6562 60 31.875 60H24.375C23.5938 60 22.8613 59.8535 22.1777 59.5605C21.4941 59.2676 20.8984 58.8672 20.3906 58.3594C19.8828 57.8516 19.4824 57.2559 19.1895 56.5723C18.8965 55.8887 18.75 55.1562 18.75 54.375V49.1016C18.75 48.1055 18.6816 47.2461 18.5449 46.5234C18.4082 45.8008 18.2031 45.127 17.9297 44.502C17.6562 43.877 17.3047 43.2422 16.875 42.5977C16.4453 41.9531 15.9473 41.25 15.3809 40.4883C14.6582 39.4922 14.043 38.5254 13.5352 37.5879C13.0273 36.6504 12.5977 35.6836 12.2461 34.6875C11.8945 33.6914 11.6406 32.6562 11.4844 31.582C11.3281 30.5078 11.25 29.3555 11.25 28.125C11.25 25.8008 11.6895 23.6133 12.5684 21.5625C13.4473 19.5117 14.6582 17.7246 16.2012 16.2012C17.7441 14.6777 19.5312 13.4766 21.5625 12.5977C23.5938 11.7188 25.7812 11.2695 28.125 11.25ZM33.75 54.375V52.5H22.5V54.375C22.5 54.8828 22.6855 55.3223 23.0566 55.6934C23.4277 56.0645 23.8672 56.25 24.375 56.25H31.875C32.3828 56.25 32.8223 56.0645 33.1934 55.6934C33.5645 55.3223 33.75 54.8828 33.75 54.375ZM41.25 28.125C41.25 26.3086 40.9082 24.6094 40.2246 23.0273C39.541 21.4453 38.6035 20.0488 37.4121 18.8379C36.2207 17.627 34.834 16.6895 33.252 16.0254C31.6699 15.3613 29.9609 15.0195 28.125 15C26.3086 15 24.6094 15.3418 23.0273 16.0254C21.4453 16.709 20.0488 17.6465 18.8379 18.8379C17.627 20.0293 16.6895 21.416 16.0254 22.998C15.3613 24.5801 15.0195 26.2891 15 28.125C15 29.8633 15.1758 31.3574 15.5273 32.6074C15.8789 33.8574 16.3379 34.9707 16.9043 35.9473C17.4707 36.9238 18.0664 37.8418 18.6914 38.7012C19.3164 39.5605 19.9121 40.459 20.4785 41.3965C21.0449 42.334 21.5137 43.3887 21.8848 44.5605C22.2559 45.7324 22.4609 47.1289 22.5 48.75H33.75C33.7695 47.1289 33.9648 45.7422 34.3359 44.5898C34.707 43.4375 35.1758 42.3828 35.7422 41.4258C36.3086 40.4688 36.9043 39.5703 37.5293 38.7305C38.1543 37.8906 38.75 36.9727 39.3164 35.9766C39.8828 34.9805 40.3418 33.8574 40.6934 32.6074C41.0449 31.3574 41.2305 29.8633 41.25 28.125ZM28.125 7.5C27.6172 7.5 27.1777 7.31445 26.8066 6.94336C26.4355 6.57227 26.25 6.13281 26.25 5.625V1.875C26.25 1.36719 26.4355 0.927734 26.8066 0.556641C27.1777 0.185547 27.6172 0 28.125 0C28.6328 0 29.0723 0.185547 29.4434 0.556641C29.8145 0.927734 30 1.36719 30 1.875V5.625C30 6.13281 29.8145 6.57227 29.4434 6.94336C29.0723 7.31445 28.6328 7.5 28.125 7.5ZM5.625 27.1875H1.875C1.36719 27.1875 0.927734 27.002 0.556641 26.6309C0.185547 26.2598 0 25.8203 0 25.3125C0 24.8047 0.185547 24.3652 0.556641 23.9941C0.927734 23.623 1.36719 23.4375 1.875 23.4375H5.625C6.13281 23.4375 6.57227 23.623 6.94336 23.9941C7.31445 24.3652 7.5 24.8047 7.5 25.3125C7.5 25.8203 7.31445 26.2598 6.94336 26.6309C6.57227 27.002 6.13281 27.1875 5.625 27.1875ZM7.17773 34.834C7.68555 34.834 8.125 35.0195 8.49609 35.3906C8.86719 35.7617 9.05273 36.2109 9.05273 36.7383C9.05273 37.1289 8.94531 37.4707 8.73047 37.7637C8.51562 38.0566 8.22266 38.291 7.85156 38.4668C7.63672 38.5645 7.34375 38.6914 6.97266 38.8477C6.60156 39.0039 6.20117 39.1699 5.77148 39.3457C5.3418 39.5215 4.95117 39.668 4.59961 39.7852C4.24805 39.9023 3.93555 39.9707 3.66211 39.9902C3.1543 39.9902 2.71484 39.8047 2.34375 39.4336C1.97266 39.0625 1.78711 38.6133 1.78711 38.0859C1.78711 37.6953 1.89453 37.3535 2.10938 37.0605C2.32422 36.7676 2.61719 36.5332 2.98828 36.3574C3.20312 36.2793 3.49609 36.1523 3.86719 35.9766C4.23828 35.8008 4.63867 35.6348 5.06836 35.4785C5.49805 35.3223 5.88867 35.1758 6.24023 35.0391C6.5918 34.9023 6.9043 34.834 7.17773 34.834ZM11.6309 15.9375C11.6309 16.4453 11.4453 16.8848 11.0742 17.2559C10.7031 17.627 10.2637 17.8125 9.75586 17.8125C9.4043 17.8125 9.08203 17.7246 8.78906 17.5488L5.5957 15.5859C5.32227 15.4102 5.10742 15.1855 4.95117 14.9121C4.79492 14.6387 4.70703 14.3262 4.6875 13.9746C4.6875 13.4668 4.87305 13.0273 5.24414 12.6562C5.61523 12.2852 6.05469 12.0996 6.5625 12.0996C6.875 12.0996 7.19727 12.1973 7.5293 12.3926L10.752 14.3262C11.0254 14.4824 11.2402 14.707 11.3965 15C11.5527 15.293 11.6309 15.6055 11.6309 15.9375ZM14.0625 5.15625C14.0625 4.64844 14.248 4.20898 14.6191 3.83789C14.9902 3.4668 15.4297 3.28125 15.9375 3.28125C16.2695 3.28125 16.582 3.36914 16.875 3.54492C17.168 3.7207 17.4023 3.95508 17.5781 4.24805L19.3945 7.5293C19.5508 7.80273 19.6289 8.0957 19.6289 8.4082C19.6289 8.93555 19.4434 9.38477 19.0723 9.75586C18.7012 10.127 18.2617 10.3125 17.7539 10.3125C17.4219 10.3125 17.1094 10.2246 16.8164 10.0488C16.5234 9.87305 16.2891 9.63867 16.1133 9.3457L14.2969 6.06445C14.1406 5.79102 14.0625 5.48828 14.0625 5.15625ZM54.375 23.4375C54.8828 23.4375 55.3223 23.623 55.6934 23.9941C56.0645 24.3652 56.25 24.8047 56.25 25.3125C56.25 25.8203 56.0645 26.2598 55.6934 26.6309C55.3223 27.002 54.8828 27.1875 54.375 27.1875H50.625C50.1172 27.1875 49.6777 27.002 49.3066 26.6309C48.9355 26.2598 48.75 25.8203 48.75 25.3125C48.75 24.8047 48.9355 24.3652 49.3066 23.9941C49.6777 23.623 50.1172 23.4375 50.625 23.4375H54.375ZM54.4336 38.1152C54.4336 38.623 54.248 39.0625 53.877 39.4336C53.5059 39.8047 53.0664 39.9902 52.5586 39.9902C52.3438 39.9902 52.0508 39.9316 51.6797 39.8145C51.3086 39.6973 50.9082 39.541 50.4785 39.3457C50.0488 39.1504 49.6582 38.9844 49.3066 38.8477C48.9551 38.7109 48.6523 38.5742 48.3984 38.4375C48.0469 38.2812 47.7637 38.0469 47.5488 37.7344C47.334 37.4219 47.2168 37.0703 47.1973 36.6797C47.1973 36.1523 47.3828 35.7129 47.7539 35.3613C48.125 35.0098 48.5742 34.8242 49.1016 34.8047C49.3359 34.8047 49.6387 34.873 50.0098 35.0098C50.3809 35.1465 50.7715 35.3027 51.1816 35.4785C51.5918 35.6543 51.9824 35.8301 52.3535 36.0059C52.7246 36.1816 53.0273 36.3086 53.2617 36.3867C53.6133 36.543 53.8965 36.7676 54.1113 37.0605C54.3262 37.3535 54.4336 37.7051 54.4336 38.1152ZM46.4941 17.8125C45.9863 17.8125 45.5469 17.627 45.1758 17.2559C44.8047 16.8848 44.6191 16.4453 44.6191 15.9375C44.6191 15.6055 44.6973 15.293 44.8535 15C45.0098 14.707 45.2246 14.4824 45.498 14.3262L48.7207 12.3926C49.0527 12.1973 49.375 12.0996 49.6875 12.0996C50.1953 12.0996 50.6348 12.2852 51.0059 12.6562C51.377 13.0273 51.5625 13.4668 51.5625 13.9746C51.5625 14.3066 51.4844 14.6094 51.3281 14.8828C51.1719 15.1562 50.9473 15.3906 50.6543 15.5859L47.4609 17.5488C47.168 17.7246 46.8457 17.8125 46.4941 17.8125ZM36.6211 8.4082C36.6211 8.0957 36.6992 7.80273 36.8555 7.5293L38.6719 4.24805C38.8281 3.95508 39.0527 3.7207 39.3457 3.54492C39.6387 3.36914 39.9609 3.28125 40.3125 3.28125C40.8203 3.28125 41.2598 3.4668 41.6309 3.83789C42.002 4.20898 42.1875 4.64844 42.1875 5.15625C42.1875 5.48828 42.1094 5.79102 41.9531 6.06445L40.1367 9.3457C39.9805 9.63867 39.7559 9.87305 39.4629 10.0488C39.1699 10.2246 38.8477 10.3125 38.4961 10.3125C37.9883 10.3125 37.5488 10.127 37.1777 9.75586C36.8066 9.38477 36.6211 8.93555 36.6211 8.4082Z" fill="#BA0000"/>
</svg>
