<svg width="55" height="55" viewBox="0 0 55 55" fill="none" xmlns="http://www.w3.org/2000/svg">
<path d="M19.625 47.8125C15.2917 45.8125 11.7708 42.7917 9.0625 38.75C6.35417 34.7083 5 30.1458 5 25.0625C5 23.9792 5.0525 22.9167 5.1575 21.875C5.2625 20.8333 5.43917 19.8125 5.6875 18.8125L2.8125 20.5L0.3125 16.1875L12.25 9.3125L19.125 21.1875L14.75 23.6875L11.375 17.8125C10.9167 18.9375 10.5733 20.1042 10.345 21.3125C10.1167 22.5208 10.0017 23.7708 10 25.0625C10 29.1042 11.1042 32.7817 13.3125 36.095C15.5208 39.4083 18.4583 41.8558 22.125 43.4375L19.625 47.8125ZM38.75 17.5V12.5H45.5625C43.6458 10.125 41.3333 8.28167 38.625 6.97C35.9167 5.65833 33.0417 5.00167 30 5C27.7083 5 25.5417 5.35417 23.5 6.0625C21.4583 6.77083 19.5833 7.77083 17.875 9.0625L15.375 4.6875C17.4583 3.22917 19.7292 2.08333 22.1875 1.25C24.6458 0.416667 27.25 0 30 0C33.2917 0 36.4375 0.615 39.4375 1.845C42.4375 3.075 45.125 4.855 47.5 7.185V3.75H52.5V17.5H38.75ZM37.125 55L25.1875 48.125L32.0625 36.25L36.375 38.75L32.8125 44.875C37.7292 44.1667 41.8233 41.9375 45.095 38.1875C48.3667 34.4375 50.0017 30.0417 50 25C50 24.5417 49.99 24.1142 49.97 23.7175C49.95 23.3208 49.8975 22.915 49.8125 22.5H54.875C54.9167 22.9167 54.9483 23.3233 54.97 23.72C54.9917 24.1167 55.0017 24.5433 55 25C55 30.625 53.3225 35.6567 49.9675 40.095C46.6125 44.5333 42.2483 47.5225 36.875 49.0625L39.625 50.6875L37.125 55Z" fill="#BA0000"/>
</svg>
